<svg width="58" height="58" viewBox="0 0 58 58" fill="none" xmlns="http://www.w3.org/2000/svg">
<path d="M50.6219 20.0704C50.5975 18.2401 50.2549 16.428 49.6093 14.7151C49.0495 13.2703 48.1945 11.9581 47.0988 10.8625C46.0032 9.76687 44.6911 8.91183 43.2463 8.352C41.5554 7.71728 39.7691 7.37408 37.9634 7.337C35.6386 7.23309 34.9015 7.20409 29 7.20409C23.0985 7.20409 22.3421 7.20409 20.0342 7.337C18.2293 7.37435 16.4438 7.71755 14.7538 8.352C13.3087 8.91144 11.9964 9.76634 10.9007 10.862C9.80501 11.9577 8.9501 13.2701 8.39067 14.7151C7.75468 16.4047 7.41222 18.1905 7.37809 19.9955C7.27417 22.3228 7.24275 23.0598 7.24275 28.9613C7.24275 34.8628 7.24275 35.6168 7.37809 37.9272C7.41434 39.7348 7.75509 41.5183 8.39067 43.2124C8.95104 44.657 9.80658 45.9688 10.9026 47.064C11.9987 48.1593 13.3112 49.0138 14.7562 49.5731C16.4416 50.2333 18.2274 50.6011 20.0366 50.6606C22.3638 50.7645 23.1009 50.7959 29.0024 50.7959C34.9039 50.7959 35.6603 50.7959 37.9683 50.6606C39.7739 50.625 41.5603 50.2826 43.2511 49.648C44.6955 49.0875 46.0073 48.2323 47.1029 47.1367C48.1984 46.0411 49.0537 44.7293 49.6142 43.2849C50.2498 41.5932 50.5905 39.8098 50.6268 37.9997C50.7307 35.6748 50.7621 34.9378 50.7621 29.0338C50.7573 23.1323 50.7573 22.3832 50.6219 20.0704ZM28.9855 40.1215C22.8133 40.1215 17.8133 35.1214 17.8133 28.9493C17.8133 22.7771 22.8133 17.777 28.9855 17.777C31.9486 17.777 34.7903 18.9541 36.8855 21.0493C38.9807 23.1445 40.1578 25.9862 40.1578 28.9493C40.1578 31.9123 38.9807 34.754 36.8855 36.8492C34.7903 38.9444 31.9486 40.1215 28.9855 40.1215ZM40.6024 19.9689C40.2602 19.9692 39.9213 19.9021 39.6051 19.7713C39.2889 19.6405 39.0016 19.4486 38.7596 19.2066C38.5176 18.9646 38.3257 18.6773 38.1949 18.3611C38.0641 18.0449 37.9969 17.706 37.9973 17.3638C37.9973 17.0218 38.0646 16.6832 38.1955 16.3673C38.3263 16.0513 38.5181 15.7643 38.7599 15.5225C39.0017 15.2807 39.2888 15.0889 39.6047 14.958C39.9206 14.8271 40.2593 14.7598 40.6012 14.7598C40.9432 14.7598 41.2818 14.8271 41.5977 14.958C41.9136 15.0889 42.2007 15.2807 42.4425 15.5225C42.6843 15.7643 42.8761 16.0513 43.007 16.3673C43.1378 16.6832 43.2052 17.0218 43.2052 17.3638C43.2052 18.8041 42.0403 19.9689 40.6024 19.9689Z" fill="white"/>
<path d="M28.9855 36.2065C32.9936 36.2065 36.2428 32.9573 36.2428 28.9493C36.2428 24.9412 32.9936 21.692 28.9855 21.692C24.9774 21.692 21.7283 24.9412 21.7283 28.9493C21.7283 32.9573 24.9774 36.2065 28.9855 36.2065Z" fill="white"/>
</svg>
