<?xml version="1.0" standalone="no"?>
<!DOCTYPE svg PUBLIC "-//W3C//DTD SVG 20010904//EN"
 "http://www.w3.org/TR/2001/REC-SVG-20010904/DTD/svg10.dtd">
<svg version="1.0" xmlns="http://www.w3.org/2000/svg"
 width="982.000000pt" height="996.000000pt" viewBox="0 0 982.000000 996.000000"
 preserveAspectRatio="xMidYMid meet">

<g transform="translate(0.000000,996.000000) scale(0.100000,-0.100000)"
fill="#000000" stroke="none">
<path d="M3788 9868 c-90 -181 -174 -257 -483 -443 -338 -203 -704 -457 -857
-593 -188 -169 -275 -315 -337 -570 l-29 -119 -64 -59 c-34 -32 -107 -102
-162 -156 -54 -54 -96 -92 -93 -85 86 209 114 310 128 469 16 187 -12 578 -65
902 -16 97 -34 128 -64 110 -13 -9 -20 -43 -34 -180 -37 -363 -88 -602 -168
-787 -26 -62 -95 -214 -153 -338 -174 -372 -225 -499 -252 -631 -19 -87 -19
-217 -2 -286 14 -51 14 -52 -17 -101 -29 -46 -145 -201 -151 -201 -1 0 2 21 7
48 29 151 38 333 38 791 1 287 -3 478 -8 483 -36 36 -74 -39 -173 -334 -180
-542 -259 -1117 -230 -1668 8 -144 16 -232 24 -245 11 -17 9 -38 -12 -125
l-26 -105 -7 110 c-22 310 -99 571 -244 825 -93 161 -288 420 -318 420 -7 0
-19 -7 -26 -15 -10 -12 -8 -35 8 -117 25 -124 46 -303 67 -573 46 -600 98
-841 241 -1115 30 -58 81 -142 114 -187 l59 -83 5 -302 c2 -179 11 -362 20
-448 167 -1498 1015 -2791 2326 -3546 945 -544 2110 -731 3195 -513 250 50
648 165 748 216 32 16 35 55 4 61 -10 2 -120 -30 -245 -71 -998 -330 -2111
-296 -3089 94 -639 255 -1202 638 -1664 1134 -450 483 -793 1061 -998 1682
-155 468 -231 941 -231 1432 0 216 17 462 34 476 6 6 24 31 39 57 48 84 132
172 365 386 253 233 385 365 463 462 202 252 310 541 296 790 -7 117 -19 153
-48 148 -16 -2 -35 -29 -73 -103 -93 -182 -166 -271 -531 -645 -218 -224 -298
-323 -388 -480 -27 -47 -46 -76 -43 -65 99 390 213 708 357 997 54 108 60 113
207 187 88 44 210 94 422 173 366 136 574 275 922 618 216 212 214 240 -12
175 -434 -125 -890 -362 -1199 -624 -73 -62 -73 -60 24 69 39 52 100 136 135
185 73 104 193 245 277 326 51 50 72 62 168 98 244 90 367 106 765 97 559 -12
847 24 1098 140 140 64 258 144 380 258 l65 61 -6 -265 c-4 -146 -7 -306 -7
-356 l0 -92 -42 9 c-94 22 -207 -30 -272 -125 -58 -83 -78 -160 -74 -291 3
-125 -15 -203 -58 -254 -50 -60 -98 -31 -127 76 -19 70 -37 206 -37 285 0 50
-3 60 -25 74 -23 15 -27 15 -51 -1 l-26 -17 7 -201 c7 -219 1 -275 -39 -363
-46 -99 -109 -108 -121 -16 -11 76 -24 120 -39 125 -10 4 -16 38 -21 124 -4
65 -11 126 -16 135 -15 29 -46 40 -71 27 -20 -11 -21 -15 -15 -150 7 -141 26
-260 53 -324 19 -46 5 -105 -34 -135 -37 -29 -85 -21 -129 22 -40 38 -114 185
-138 275 -21 76 -44 101 -83 87 -24 -9 -27 -15 -27 -57 0 -45 -2 -48 -42 -68
-55 -27 -99 -77 -137 -159 -29 -61 -31 -72 -31 -180 0 -99 3 -122 23 -165 13
-27 33 -60 44 -72 30 -32 39 -180 14 -218 -48 -74 -154 28 -267 258 -25 49
-51 90 -62 93 -24 8 -67 -22 -67 -46 0 -11 33 -87 74 -168 105 -212 139 -328
116 -410 -32 -122 -127 -56 -250 174 -58 107 -77 135 -98 141 -31 7 -56 -7
-60 -35 -4 -26 124 -267 181 -341 80 -104 147 -135 221 -103 81 37 120 113
115 229 l-4 79 57 -1 c102 0 158 71 158 201 l0 71 51 6 c111 13 162 82 163
222 l1 83 40 -23 c110 -64 224 -26 266 88 10 30 18 36 52 41 91 15 164 79 193
171 8 27 17 56 19 62 3 9 16 5 41 -12 60 -41 122 -30 185 31 20 20 47 59 60
87 13 29 24 54 26 56 1 2 17 -6 36 -18 64 -39 167 -21 224 41 12 12 33 43 46
67 l25 43 7 -43 c15 -101 38 -205 47 -216 16 -19 53 -16 73 7 17 18 17 24 1
107 -44 237 -49 330 -50 918 l-1 470 -37 1 c-21 0 -41 3 -45 7 -13 14 -35 6
-91 -32 -105 -71 -195 -107 -326 -130 -36 -7 -213 -11 -436 -11 -496 0 -879
-25 -1052 -69 -40 -11 -74 -18 -75 -17 -6 6 263 197 380 271 655 411 1368 642
2145 695 679 45 1397 -72 2022 -332 461 -191 883 -450 1256 -771 246 -212 540
-535 732 -803 784 -1099 1041 -2465 711 -3779 -79 -313 -182 -590 -340 -912
-60 -122 -96 -208 -93 -218 4 -10 16 -15 32 -13 23 3 36 24 104 158 513 1019
640 2149 367 3245 -201 810 -630 1561 -1229 2154 -649 643 -1438 1069 -2320
1251 -246 51 -367 68 -600 86 -807 59 -1583 -83 -2320 -424 -235 -108 -559
-300 -775 -459 l-60 -45 66 64 c90 87 207 167 454 316 507 304 692 460 860
727 82 131 162 343 177 470 3 27 0 30 -28 33 -29 3 -32 -1 -76 -90z m-78 -279
c-83 -166 -224 -337 -384 -465 -116 -93 -281 -203 -516 -343 -276 -164 -375
-235 -507 -367 l-111 -111 15 51 c40 136 115 258 228 370 140 141 512 404 900
638 205 124 364 239 386 280 6 11 13 18 15 15 3 -3 -9 -34 -26 -68z m-1906
-754 c45 -455 26 -651 -88 -920 -62 -148 -144 -287 -259 -442 -57 -76 -127
-172 -156 -214 -28 -42 -61 -85 -73 -95 l-21 -19 5 115 c8 166 41 263 230 670
236 506 272 610 320 914 12 80 23 144 25 143 1 -2 9 -70 17 -152z m2216 -540
c0 -19 -225 -133 -335 -169 -213 -69 -326 -80 -855 -81 -493 -1 -584 -8 -749
-60 -41 -13 -77 -23 -79 -21 -7 8 120 106 183 142 204 113 432 142 1225 154
415 6 513 10 550 23 51 17 60 19 60 12z m-3070 -1224 c-23 -251 -76 -482 -188
-816 l-67 -200 -9 110 c-11 139 7 533 34 742 40 310 115 633 208 895 l27 78 3
-343 c2 -200 -1 -394 -8 -466z m1530 566 c-148 -144 -245 -225 -373 -311 -132
-87 -223 -133 -447 -221 -244 -96 -404 -162 -452 -186 -21 -11 -38 -16 -38
-11 0 5 30 38 67 73 276 263 628 494 983 644 63 27 369 135 380 135 3 -1 -51
-56 -120 -123z m1769 -4 c22 -6 23 -9 17 -67 -26 -229 -93 -386 -166 -386 -16
0 -42 11 -58 25 -25 21 -31 35 -37 83 -13 114 -10 155 17 212 49 108 135 158
227 133z m-1289 -835 c46 -169 47 -290 4 -355 -27 -42 -92 -26 -120 30 -9 18
-25 39 -36 48 -16 12 -22 32 -25 86 -8 99 16 175 72 230 64 65 78 60 105 -39z
m-2739 -138 c173 -259 267 -517 300 -825 12 -108 5 -583 -10 -749 l-6 -70 -36
55 c-189 286 -261 559 -309 1159 -18 236 -44 490 -56 564 l-5 31 26 -30 c14
-16 58 -77 96 -135z m1476 61 c-21 -267 -161 -536 -414 -796 -43 -44 -166
-161 -273 -260 -107 -98 -232 -217 -278 -264 -93 -96 -90 -100 -45 59 29 102
95 244 153 331 81 120 145 194 374 429 241 247 349 375 430 503 27 42 52 77
54 77 3 0 2 -36 -1 -79z m-723 -26 c-4 -8 -8 -15 -10 -15 -2 0 -4 7 -4 15 0 8
4 15 10 15 5 0 7 -7 4 -15z"/>
<path d="M5845 8122 c-48 -10 -61 -55 -25 -87 16 -15 26 -17 48 -9 53 19 32
108 -23 96z"/>
<path d="M5140 7970 c-6 -11 -28 -79 -49 -150 -47 -158 -108 -268 -201 -362
-98 -99 -175 -111 -244 -39 -31 33 -48 101 -24 101 37 0 158 73 206 124 73 77
87 147 46 228 -57 112 -226 50 -308 -112 -43 -87 -60 -164 -54 -255 9 -138 83
-219 213 -232 61 -6 112 8 173 48 31 21 42 25 42 13 0 -8 11 -19 25 -26 43
-19 66 8 119 139 79 198 154 307 246 357 45 24 62 28 130 27 86 -1 104 8 98
56 -2 23 -11 31 -43 41 -82 28 -193 2 -282 -64 l-32 -24 14 47 c19 61 19 68
-1 87 -22 22 -61 20 -74 -4z m-350 -155 c26 -31 -26 -121 -98 -166 -65 -41
-75 -39 -57 12 29 82 94 169 126 169 9 0 22 -7 29 -15z"/>
<path d="M5731 7891 c-25 -25 -128 -218 -162 -305 -48 -121 -35 -214 34 -256
57 -35 126 -20 228 50 l59 40 19 -38 c66 -129 176 -138 343 -28 l26 17 0 -50
c1 -104 72 -181 168 -181 64 0 162 47 252 121 69 57 84 89 57 119 -24 26 -57
25 -81 -2 -34 -38 -134 -107 -170 -117 -62 -17 -124 25 -124 84 0 58 76 197
163 295 56 64 64 84 43 115 -21 32 -43 32 -76 0 l-27 -26 -57 31 c-49 25 -69
30 -130 30 -152 0 -227 -38 -381 -194 -89 -91 -135 -130 -179 -151 -72 -35
-92 -28 -89 32 2 51 36 132 112 266 34 59 61 113 61 121 0 16 -37 46 -57 46
-7 0 -21 -8 -32 -19z m637 -211 c23 -10 42 -25 42 -32 0 -22 -164 -180 -224
-217 -131 -78 -215 -40 -174 80 25 74 79 125 175 165 70 29 124 30 181 4z"/>
<path d="M4858 6365 c-3 -11 -18 -69 -33 -130 -34 -136 -49 -159 -59 -83 -9
64 -35 158 -44 158 -4 0 -3 -41 2 -90 6 -56 6 -94 0 -99 -5 -6 -24 -2 -45 8
-20 10 -61 26 -90 36 -30 10 -72 26 -93 37 -32 15 -71 20 -210 25 -276 9 -406
-27 -525 -146 -53 -53 -131 -158 -131 -176 0 -20 -70 -98 -246 -278 -110 -111
-216 -228 -237 -259 -135 -205 -142 -370 -21 -477 95 -83 246 -82 374 4 29 19
55 35 59 35 3 0 48 -41 100 -90 l93 -90 -31 -35 c-17 -20 -31 -40 -31 -44 0
-5 11 -55 24 -112 19 -79 30 -107 51 -127 17 -15 24 -30 20 -40 -3 -10 -8 -54
-10 -100 -3 -46 -7 -86 -9 -91 -3 -4 -10 -39 -16 -77 -17 -110 -76 -335 -117
-451 -38 -108 -38 -108 -130 -108 -69 0 -85 -3 -120 -27 -89 -59 -129 -220
-83 -340 16 -45 33 -66 73 -99 107 -86 212 -119 377 -119 164 0 231 24 330
117 l46 42 93 -6 c91 -6 94 -7 125 -41 48 -53 124 -100 201 -124 59 -18 93
-22 220 -21 128 0 159 3 209 21 61 23 108 54 150 99 l24 26 34 -21 c70 -43
148 -54 353 -50 165 3 197 7 243 25 100 40 151 98 165 185 7 48 -15 131 -46
172 -25 32 -115 86 -143 86 -25 0 -26 25 -3 81 11 30 26 87 33 128 l12 75 28
-65 c15 -35 38 -86 51 -114 12 -27 26 -61 30 -75 29 -93 140 -179 275 -210 30
-7 67 -22 82 -33 23 -17 43 -20 135 -20 130 1 188 8 216 28 25 18 163 20 242
4 92 -19 124 -21 152 -11 16 5 38 6 51 1 31 -12 79 10 118 52 17 19 46 46 66
61 20 15 46 48 59 73 13 25 30 57 37 71 14 27 18 104 7 156 -4 18 -25 68 -47
111 -40 77 -40 77 -34 163 4 47 12 94 18 104 9 14 9 28 0 57 -9 30 -9 47 0 71
11 27 9 38 -9 75 -12 25 -42 70 -68 101 -33 41 -43 61 -36 69 5 7 41 44 78 82
73 75 143 158 143 169 0 3 -8 6 -17 6 -14 0 -12 5 9 28 30 32 58 73 58 84 0 5
-17 8 -37 9 -21 0 -31 3 -23 6 8 4 32 17 53 30 l39 24 -45 29 c-53 34 -84 72
-129 165 -49 100 -62 153 -49 201 6 21 11 83 11 136 0 113 -30 224 -81 301
-53 81 -109 95 -212 53 -106 -44 -172 -98 -284 -233 -15 -18 -33 -23 -113 -28
-52 -4 -92 -4 -88 0 13 14 -12 45 -36 45 -25 0 -59 -22 -121 -81 -22 -21 -86
-61 -143 -89 l-103 -52 -62 17 c-86 23 -260 31 -328 15 -120 -27 -164 -82
-157 -194 4 -63 17 -106 65 -214 4 -9 -6 -8 -36 4 -23 9 -44 14 -46 12 -3 -2
8 -22 24 -44 44 -60 97 -172 116 -244 36 -140 28 -271 -25 -383 -20 -42 -23
-44 -80 -53 -35 -6 -64 -6 -69 -1 -13 13 -140 3 -179 -14 -33 -14 -34 -13 -58
16 -14 17 -38 44 -54 61 -17 16 -30 35 -30 40 0 6 19 19 43 30 54 24 133 97
160 149 42 77 26 291 -32 430 -5 11 -16 40 -26 65 -15 39 -180 377 -205 420
-26 46 -41 97 -46 157 -10 135 -52 236 -144 350 -28 34 -50 68 -50 76 0 8 9
22 21 33 26 23 62 91 56 107 -2 6 -17 -9 -34 -34 -35 -51 -70 -85 -79 -76 -3
3 1 29 9 59 19 64 40 217 35 250 -3 21 -4 22 -10 3z m-432 -206 c9 -7 3 -27
-22 -77 -19 -37 -34 -72 -34 -79 0 -7 -9 -28 -20 -48 -11 -20 -20 -44 -20 -55
0 -10 -4 -22 -10 -25 -5 -3 -10 -17 -10 -31 0 -13 -4 -24 -10 -24 -6 0 -10
-37 -10 -90 0 -71 4 -97 20 -125 11 -19 15 -35 10 -35 -6 0 -10 4 -10 9 0 14
-122 70 -180 82 -30 6 -58 14 -62 18 -4 3 12 22 37 41 44 35 115 152 115 191
0 10 5 21 10 24 6 3 10 19 10 34 0 15 4 31 9 37 5 5 11 32 14 59 3 28 9 65 13
84 l7 33 65 -6 c37 -4 71 -11 78 -17z m-409 -251 c47 -44 19 -158 -40 -158
-27 0 -67 49 -67 81 0 24 10 51 33 87 13 19 48 14 74 -10z m525 -105 c27 -24
25 -109 -4 -140 -27 -29 -45 -29 -75 -1 -44 42 -19 158 34 158 15 0 35 -7 45
-17z m2588 -89 c83 -96 115 -273 79 -437 -13 -54 -1 -102 54 -216 35 -73 102
-171 117 -171 6 0 10 -4 10 -9 0 -9 -110 -61 -129 -61 -6 0 -11 -4 -11 -9 0
-4 27 -14 60 -21 33 -7 60 -15 60 -17 0 -6 -70 -66 -109 -93 l-36 -25 45 -5
45 -5 -120 -121 c-66 -67 -146 -138 -178 -159 -31 -21 -55 -40 -53 -42 6 -6
85 35 124 64 17 13 37 21 42 18 20 -12 111 -139 116 -162 4 -16 1 -28 -10 -36
-15 -11 -16 -16 -1 -57 10 -29 12 -46 5 -48 -5 -2 -10 -30 -10 -62 0 -83 -33
-263 -78 -420 -33 -118 -41 -135 -61 -140 -22 -5 -23 -6 -6 -20 44 -36 58
-122 24 -140 -27 -15 -49 -6 -49 19 0 30 -11 51 -26 51 -9 0 -14 -12 -14 -34
0 -38 -12 -46 -69 -46 -47 0 -51 4 -41 40 11 38 -13 62 -29 31 -6 -11 -11 -27
-11 -35 0 -20 -29 -20 -58 0 -31 22 -28 46 16 104 33 43 42 68 65 173 14 67
29 140 33 162 6 37 5 38 -9 20 -23 -32 -55 -127 -68 -201 -10 -57 -20 -79 -60
-132 -47 -60 -61 -103 -39 -117 21 -13 8 -20 -40 -22 -48 -2 -50 0 -50 24 0
14 -18 54 -39 88 -28 44 -48 95 -69 177 -63 238 -92 247 -42 12 27 -130 35
-152 70 -202 46 -63 48 -74 20 -102 -31 -31 -58 -26 -68 12 -5 20 -16 34 -26
36 -17 4 -18 -1 -12 -41 7 -44 6 -45 -23 -52 -18 -4 -41 -1 -58 7 -23 11 -28
20 -28 48 0 49 -29 48 -33 0 -4 -44 -14 -54 -46 -46 -23 6 -26 12 -26 47 0 41
27 106 54 128 9 8 16 17 16 22 0 17 -29 9 -58 -16 -33 -28 -34 -28 -52 30 -24
78 -104 260 -108 244 -7 -38 80 -314 109 -343 12 -14 11 -28 -6 -49 -13 -18
-16 -18 -69 -3 -80 24 -150 61 -184 100 -31 35 -58 122 -49 157 4 16 2 19 -14
14 -16 -5 -19 -1 -19 22 0 43 54 186 89 237 41 59 81 145 81 173 0 24 -15 39
-25 23 -15 -24 -22 -6 -12 32 8 31 7 43 -1 46 -8 2 -8 12 3 32 13 25 22 29 79
35 35 4 73 4 84 1 18 -6 211 19 220 29 2 2 -85 3 -194 2 -110 -1 -205 2 -212
7 -10 6 1 17 40 40 l53 31 -35 3 c-57 4 -162 22 -200 34 l-35 11 45 20 45 20
-44 13 c-24 8 -46 15 -48 18 -2 2 10 25 26 52 25 38 31 59 31 101 0 60 -2 63
-130 192 -73 74 -146 185 -176 269 -7 20 -13 70 -14 110 0 64 3 76 24 97 57
57 267 75 416 34 l77 -20 59 34 c32 19 89 49 127 67 37 17 67 34 67 38 0 4 23
26 50 50 54 47 66 43 24 -8 -15 -17 -24 -33 -21 -37 3 -3 28 2 54 12 26 9 92
19 146 22 93 6 99 7 112 33 23 45 105 129 169 173 96 67 117 76 172 77 47 0
55 -3 84 -36z m-3264 -141 c-6 -40 -2 -58 22 -108 16 -33 50 -80 76 -105 69
-67 61 -103 -32 -146 -72 -33 -137 -29 -196 13 -47 34 -89 111 -90 167 l-1 41
45 5 c31 3 45 10 45 20 0 12 -14 15 -66 15 -55 0 -73 -5 -114 -30 -71 -44 -71
-77 1 -40 36 18 50 7 57 -46 8 -58 54 -127 115 -173 32 -24 55 -49 58 -65 3
-14 21 -74 40 -133 52 -166 96 -235 183 -286 38 -22 57 -26 125 -26 94 -1 133
14 187 71 40 42 104 136 134 198 16 31 135 217 150 233 9 10 54 -16 97 -56 27
-25 51 -43 54 -39 12 11 -37 87 -79 121 -50 41 -127 76 -168 76 -41 0 -36 -14
15 -44 25 -15 48 -31 51 -36 9 -15 -64 -89 -120 -121 -152 -87 -391 22 -398
183 l-2 42 55 8 c118 17 216 93 227 177 3 22 9 41 14 41 5 0 36 -27 68 -60 33
-33 64 -60 68 -60 5 0 22 -13 38 -30 16 -16 34 -30 40 -30 6 0 22 -11 35 -25
13 -14 29 -25 35 -25 7 0 20 -9 30 -20 10 -11 22 -20 26 -20 4 0 37 -21 73
-46 l66 -45 -7 -107 c-3 -59 -10 -115 -14 -124 -5 -9 -9 -28 -9 -41 0 -47
-132 -144 -273 -200 -83 -33 -87 -33 -87 -2 0 34 -10 32 -51 -11 -85 -89 -169
-120 -271 -102 -83 15 -127 42 -230 140 -54 51 -104 92 -112 90 -8 -2 -48 30
-88 71 -79 80 -148 197 -187 316 -26 79 -28 216 -5 276 8 22 17 48 21 58 3 11
16 17 34 17 15 0 31 5 34 10 3 6 26 10 51 10 24 0 44 5 44 10 0 6 19 10 43 10
24 0 47 4 53 9 8 8 32 14 82 20 11 1 12 -10 8 -46z m482 -714 c4 -20 -53 -86
-102 -117 -34 -22 -52 -26 -111 -26 -79 1 -119 17 -159 64 -47 56 -35 72 56
72 41 0 65 -5 76 -15 13 -14 20 -14 69 5 53 19 138 38 158 33 6 -1 11 -8 13
-16z m1375 -77 c81 -87 110 -133 121 -194 6 -33 2 -42 -39 -93 -44 -54 -46
-57 -28 -72 10 -8 12 -12 6 -8 -7 3 -13 1 -13 -4 0 -6 -7 -11 -15 -11 -31 0
-13 -18 43 -42 31 -14 68 -28 82 -31 19 -5 25 -12 25 -29 -1 -21 -34 -118 -40
-118 -2 0 -32 13 -67 30 -34 16 -72 30 -83 30 -11 0 -30 3 -43 6 -19 5 -20 9
-10 21 19 23 36 80 49 161 9 58 9 92 -1 160 -12 83 -52 216 -71 237 -11 11
-12 48 -1 43 4 -1 42 -40 85 -86z m-1899 -77 c7 -18 -16 -30 -40 -21 -13 5
-14 9 -4 21 16 19 36 19 44 0z m972 -128 c12 -7 39 -35 60 -63 51 -68 113
-118 171 -140 27 -10 49 -18 51 -19 1 -1 -2 -14 -7 -29 -10 -24 -15 -26 -66
-26 -75 0 -95 -12 -95 -55 0 -18 4 -36 8 -39 5 -3 12 -45 16 -93 3 -48 11 -92
16 -97 6 -6 10 -20 10 -33 0 -13 5 -23 10 -23 6 0 10 -7 10 -15 0 -25 60 -55
112 -55 26 0 50 5 53 10 3 6 17 10 31 10 14 0 24 6 24 14 0 7 7 19 15 26 11 9
15 32 15 80 l0 68 52 46 c30 26 63 46 75 46 20 0 23 -5 23 -35 0 -27 -9 -45
-39 -78 -42 -46 -91 -120 -91 -137 0 -6 14 -2 31 10 16 12 32 20 35 17 3 -3
-6 -27 -19 -54 -36 -69 -42 -129 -23 -197 9 -31 20 -56 24 -56 5 0 14 16 21
35 16 47 98 135 151 163 45 24 45 20 -4 -35 -24 -28 -9 -30 42 -5 29 14 57 17
130 14 l92 -3 0 -77 c0 -82 -23 -209 -40 -226 -6 -6 -53 -11 -108 -11 -89 0
-162 -15 -162 -34 0 -3 60 -7 133 -8 195 -3 289 -40 328 -130 21 -49 25 -123
9 -153 -17 -32 -95 -79 -156 -95 -32 -8 -59 -13 -62 -11 -2 3 4 27 13 55 11
33 14 62 10 83 -10 43 -39 101 -61 119 -15 13 -16 12 -9 -11 4 -14 11 -29 15
-35 5 -5 11 -35 15 -66 8 -66 -8 -134 -35 -149 -28 -15 -170 -13 -170 3 0 6 7
31 15 54 17 48 9 116 -19 158 -21 31 -42 34 -24 3 7 -13 12 -59 13 -105 0 -71
-3 -85 -22 -104 -21 -21 -22 -22 -100 -6 -43 9 -94 19 -113 24 l-35 9 -5 105
c-4 94 -8 110 -32 147 -16 23 -39 49 -53 58 -24 15 -35 44 -17 44 5 0 17 6 27
14 17 13 14 13 -25 4 -25 -5 -61 -11 -80 -11 -32 -2 -35 0 -32 23 13 97 12
268 -2 357 -27 163 -35 193 -88 336 -22 59 -27 7 -9 -98 11 -61 24 -141 30
-180 16 -105 35 -389 28 -408 -5 -14 -21 -17 -84 -17 -78 -1 -174 -18 -209
-39 -11 -5 -14 -11 -9 -11 6 0 87 -1 180 -3 159 -2 173 -4 219 -27 65 -33 103
-82 118 -152 10 -48 9 -62 -7 -104 -22 -57 -61 -96 -122 -119 -51 -20 -61 -15
-45 20 15 33 15 176 1 209 -19 42 -29 19 -29 -67 0 -92 -12 -144 -39 -178 -14
-18 -31 -23 -80 -27 -35 -3 -67 0 -73 6 -6 6 -4 27 6 63 19 62 20 120 3 169
-18 54 -32 33 -28 -46 3 -68 -12 -145 -32 -171 -23 -31 -154 -4 -229 47 -90
60 -117 142 -87 270 42 184 59 590 32 770 -31 207 -38 185 -39 -123 -2 -368
-24 -597 -58 -597 -25 0 -131 125 -191 226 -103 172 -195 368 -253 543 -17 50
-36 222 -29 253 l7 27 213 4 c116 3 239 9 272 15 109 18 265 62 358 101 109
46 97 43 123 28z m1191 -343 l22 -6 -19 -39 c-22 -42 -26 -69 -10 -69 7 0 9
-20 4 -60 -6 -52 -4 -60 10 -60 20 0 20 -10 3 -35 -20 -26 -33 -13 -40 40 -4
25 -18 67 -32 94 -14 28 -21 52 -17 55 5 3 14 23 22 45 14 42 19 45 57 35z
m-250 -39 c117 -35 181 -121 191 -257 4 -58 1 -76 -22 -127 -14 -32 -26 -68
-26 -80 0 -34 -15 -24 -35 22 -26 58 -71 115 -108 134 -23 11 -48 14 -99 11
l-69 -5 20 21 c30 32 26 35 -21 24 -73 -16 -148 -60 -209 -123 l-59 -60 0 41
c0 51 39 130 91 183 l39 41 -47 0 -47 0 34 35 c57 58 112 79 212 79 87 0 87 0
70 21 -9 11 -23 24 -29 28 -45 28 31 36 114 12z m-172 -5 c3 -5 1 -10 -4 -10
-6 0 -11 5 -11 10 0 6 2 10 4 10 3 0 8 -4 11 -10z m-1748 -147 c67 -164 171
-362 249 -478 66 -97 76 -122 69 -168 -8 -48 -24 -113 -35 -142 -4 -11 -14
-36 -21 -54 -19 -50 -65 -99 -120 -126 -61 -31 -171 -50 -242 -41 -51 7 -56
10 -62 36 -8 38 3 93 32 159 26 60 22 79 -8 41 -28 -37 -59 -125 -59 -170 0
-31 -4 -40 -17 -41 -37 -3 -60 3 -110 27 -37 18 -55 33 -59 50 -12 48 3 114
40 173 20 33 36 62 36 65 0 4 -16 -8 -36 -26 -36 -33 -53 -63 -74 -130 -14
-46 -25 -47 -50 -6 -46 75 -28 198 40 269 36 39 38 39 112 39 41 0 97 -7 124
-15 54 -16 128 -20 120 -6 -3 5 -26 15 -52 22 -59 18 -67 28 -48 64 27 52 73
194 99 303 34 143 47 192 52 192 2 0 11 -17 20 -37z m3484 -347 c21 -63 21
-69 6 -78 -10 -5 -17 -19 -17 -32 0 -53 -32 -131 -68 -163 -20 -18 -40 -33
-44 -33 -5 0 -15 14 -22 31 -11 27 -11 39 4 88 10 31 33 112 50 180 33 123 33
123 51 100 10 -13 28 -55 40 -93z m-3041 -353 l42 -38 -7 -73 -8 -74 -30 6
c-93 19 -109 26 -102 49 4 12 14 55 23 95 9 39 21 72 28 72 6 0 30 -17 54 -37z"/>
<path d="M3945 5860 c-14 -16 -15 -22 -5 -35 28 -34 77 -4 53 33 -15 24 -28
24 -48 2z"/>
<path d="M4470 5755 c-18 -22 -8 -50 19 -50 33 0 49 28 28 49 -19 20 -31 20
-47 1z"/>
<path d="M6770 5007 c-48 -32 -74 -81 -74 -140 0 -60 18 -77 84 -77 32 0 56 7
82 25 44 30 132 150 122 166 -13 21 -89 49 -135 49 -31 0 -57 -7 -79 -23z
m146 -22 l35 -15 -17 -29 c-19 -31 -34 -32 -34 -2 0 28 -11 32 -29 9 -12 -15
-23 -19 -39 -14 -22 7 -38 39 -27 56 9 15 70 12 111 -5z m-151 -163 c-7 -8
-35 7 -35 18 0 6 7 6 20 -2 10 -7 17 -14 15 -16z"/>
<path d="M6187 4849 c-43 -23 -85 -82 -93 -131 -6 -33 -4 -35 27 -42 103 -22
145 -25 183 -15 44 12 106 67 106 94 0 27 -71 92 -115 104 -53 15 -63 14 -108
-10z m47 -45 c9 -25 -12 -54 -39 -54 -25 0 -35 -23 -15 -35 18 -11 10 -23 -12
-18 -48 10 -48 10 -37 43 24 68 87 107 103 64z m141 -43 c3 -5 1 -12 -5 -16
-5 -3 -10 1 -10 9 0 18 6 21 15 7z"/>
<path d="M6555 4732 c-61 -33 -66 -60 -16 -77 66 -22 78 -69 30 -110 -25 -21
-38 -25 -63 -19 -41 8 -76 41 -77 73 0 26 0 26 -11 4 -23 -47 36 -113 100
-113 35 0 76 20 98 47 18 23 23 24 43 13 57 -30 138 24 148 98 5 34 1 44 -20
66 -14 14 -32 26 -39 26 -9 0 -10 -3 -2 -8 22 -14 36 -54 30 -87 -8 -39 -22
-53 -64 -61 -66 -13 -107 49 -81 121 11 31 11 37 -1 45 -20 13 -18 13 -75 -18z"/>
<path d="M6913 4743 c9 -2 25 -2 35 0 9 3 1 5 -18 5 -19 0 -27 -2 -17 -5z"/>
<path d="M6348 4613 c7 -3 16 -2 19 1 4 3 -2 6 -13 5 -11 0 -14 -3 -6 -6z"/>
<path d="M6308 4603 c7 -3 16 -2 19 1 4 3 -2 6 -13 5 -11 0 -14 -3 -6 -6z"/>
<path d="M6285 4540 c-3 -6 1 -7 9 -4 18 7 21 14 7 14 -6 0 -13 -4 -16 -10z"/>
<path d="M1615 6021 c-53 -24 -111 -90 -126 -143 -49 -185 179 -564 476 -790
206 -157 433 -190 548 -80 54 51 72 98 72 192 0 78 -3 92 -37 163 -21 43 -32
74 -25 70 7 -4 107 -78 224 -165 141 -105 221 -158 237 -158 27 0 46 25 46 58
0 20 -225 191 -667 510 l-173 124 0 59 c0 51 -3 61 -25 75 -23 15 -27 15 -50
0 l-26 -17 6 -257 c3 -141 8 -267 11 -279 3 -14 14 -25 31 -29 21 -6 31 -2 48
18 21 24 22 33 18 154 l-4 129 46 -50 c77 -83 167 -207 196 -270 53 -114 45
-193 -24 -248 -47 -39 -131 -48 -206 -23 -181 59 -439 321 -571 579 -41 81
-50 107 -50 151 0 66 28 113 85 140 37 19 40 19 84 2 74 -28 90 -30 111 -11
11 10 20 26 20 35 0 64 -181 104 -275 61z"/>
<path d="M8819 3861 l-24 -20 57 -108 c70 -133 92 -206 86 -284 -3 -48 -10
-65 -33 -89 -36 -37 -83 -52 -129 -39 l-35 10 6 102 c9 163 -28 256 -122 298
-58 27 -99 24 -136 -9 -38 -34 -50 -88 -37 -167 15 -97 70 -185 162 -257 38
-30 53 -51 62 -82 6 -22 24 -75 39 -116 44 -120 37 -235 -13 -204 -9 6 -41 40
-70 75 -169 204 -221 249 -288 249 -35 0 -47 -5 -68 -31 -56 -66 -50 -119 39
-354 4 -11 -28 27 -71 85 -43 58 -166 212 -273 343 -196 240 -216 258 -249
225 -32 -32 -14 -63 174 -294 103 -126 229 -287 282 -357 l95 -129 -1 -156
c-1 -179 -14 -240 -64 -313 -62 -91 -122 -100 -189 -29 -69 72 -108 244 -77
335 13 38 15 40 52 38 45 -3 66 10 66 42 0 27 -51 55 -99 55 -44 0 -95 -49
-112 -107 -30 -104 -12 -267 41 -359 17 -30 17 -32 -1 -48 -10 -9 -19 -27 -19
-41 0 -28 -50 -89 -90 -110 -25 -13 -28 -13 -38 10 -19 41 -85 107 -127 126
-45 21 -139 25 -198 8 -57 -16 -113 -71 -138 -137 -18 -49 -20 -72 -16 -157 2
-55 11 -116 19 -135 9 -23 12 -47 7 -70 -4 -19 -15 -73 -24 -120 -50 -250
-169 -309 -281 -141 -74 110 -123 300 -180 708 -29 208 -42 271 -56 285 -30
30 -78 3 -78 -46 0 -71 76 -542 115 -711 14 -60 28 -121 31 -135 7 -31 -55
-223 -92 -286 -29 -49 -66 -80 -85 -69 -33 21 -43 80 -47 273 -4 186 -5 194
-25 201 -29 11 -56 2 -68 -22 -15 -26 -6 -377 11 -432 23 -77 85 -135 145
-135 64 0 130 64 181 177 19 41 37 85 40 98 8 32 15 31 42 -4 30 -41 101 -88
155 -103 117 -31 231 87 284 294 10 37 21 68 25 68 4 0 24 -11 44 -25 43 -29
89 -39 151 -32 68 7 121 50 162 129 29 58 34 79 39 163 4 77 8 98 21 102 48
17 119 84 147 140 16 32 29 59 30 60 0 2 18 -7 40 -18 58 -30 149 -23 205 16
92 65 145 188 157 364 l7 100 55 -66 c74 -89 92 -100 125 -79 15 10 25 26 25
40 0 14 -34 98 -76 188 -117 251 -157 355 -162 422 l-5 59 34 -19 c19 -11 49
-40 67 -64 104 -139 149 -191 192 -224 59 -45 109 -56 145 -32 85 56 87 172 9
407 -5 13 4 18 44 23 66 8 138 57 175 118 37 60 45 139 23 228 -18 73 -107
257 -142 295 -28 30 -44 31 -75 6z m-228 -222 c36 -19 69 -106 68 -179 l0 -65
-35 39 c-34 40 -94 148 -94 172 0 12 26 44 36 44 3 0 14 -5 25 -11z m-1011
-1586 c38 -23 70 -55 70 -69 0 -19 -53 -27 -99 -14 -46 12 -75 47 -64 76 13
37 40 39 93 7z m-141 -127 c39 -43 102 -67 178 -69 l65 -1 -5 -62 c-9 -113
-61 -184 -134 -184 -41 0 -103 39 -135 85 -39 56 -62 169 -49 242 14 73 21 82
39 47 8 -16 26 -42 41 -58z"/>
<path d="M8873 2265 c-12 -9 -25 -32 -29 -51 -15 -80 46 -116 86 -51 24 39 25
65 4 95 -18 26 -32 28 -61 7z"/>
<path d="M8741 2216 c-40 -43 -33 -126 10 -126 36 0 58 19 69 61 9 33 8 45 -5
65 -20 31 -45 31 -74 0z"/>
<path d="M8985 2199 c-53 -30 -73 -98 -35 -119 26 -14 65 4 94 42 37 52 -5
107 -59 77z"/>
<path d="M8780 2067 l-85 -42 0 -40 c0 -37 3 -41 42 -60 23 -11 56 -32 74 -47
41 -35 73 -35 105 -2 25 24 26 28 19 107 -7 87 -24 127 -53 126 -9 0 -55 -19
-102 -42z"/>
<path d="M9008 2064 c-54 -29 -75 -117 -30 -127 59 -13 131 90 90 131 -15 15
-27 15 -60 -4z"/>
<path d="M6480 1840 c-11 -11 -20 -29 -20 -39 0 -20 35 -51 57 -51 18 0 53 37
53 55 0 19 -36 55 -55 55 -8 0 -24 -9 -35 -20z"/>
<path d="M4485 1766 c-70 -22 -123 -55 -186 -114 -55 -51 -71 -77 -161 -257
-55 -110 -147 -287 -204 -393 -57 -106 -104 -199 -104 -207 0 -21 45 -48 69
-40 22 7 128 199 308 555 82 163 116 219 163 272 91 101 169 130 237 88 42
-25 60 -86 44 -142 -22 -72 -157 -211 -308 -317 -68 -48 -77 -60 -63 -95 13
-35 32 -37 121 -15 106 27 169 14 199 -41 10 -18 2 -24 -87 -65 -147 -69 -276
-160 -379 -267 -104 -110 -149 -188 -149 -261 0 -43 4 -52 34 -79 33 -29 37
-30 108 -26 63 4 88 12 166 51 209 104 363 298 411 518 5 22 17 29 93 52 102
31 257 66 293 67 24 0 25 -3 25 -58 0 -72 27 -125 84 -169 50 -39 99 -50 153
-34 45 14 117 75 150 129 l22 35 19 -44 c23 -54 51 -85 99 -110 73 -37 139
-19 219 61 l52 52 -6 -35 c-10 -60 33 -96 77 -64 12 9 22 45 36 137 23 158 34
207 65 283 51 124 109 179 210 198 72 13 85 22 85 60 0 91 -197 48 -295 -64
l-46 -52 2 57 c3 80 -28 110 -75 75 -15 -11 -19 -38 -26 -189 l-9 -176 -50
-84 c-50 -85 -101 -140 -141 -153 -31 -10 -79 13 -95 46 -30 57 -9 219 46 356
27 68 23 105 -15 118 -29 10 -39 3 -71 -49 -8 -13 -19 -14 -60 -8 -63 10 -125
-1 -192 -34 -59 -28 -151 -108 -172 -148 -11 -20 -22 -26 -46 -26 -56 0 -277
-41 -355 -66 -41 -13 -75 -22 -76 -21 -1 1 -9 16 -18 34 -21 41 -70 78 -123
92 l-43 12 53 46 c70 61 132 137 162 197 45 91 28 224 -36 283 -48 44 -132 55
-214 29z m1072 -500 c9 -9 -10 -62 -59 -165 -29 -60 -58 -102 -103 -148 -55
-58 -66 -64 -96 -61 -27 2 -38 10 -52 38 -22 42 -19 118 7 171 48 100 170 185
254 176 24 -3 46 -8 49 -11z m-987 -417 c-32 -81 -104 -182 -173 -244 -74 -66
-231 -148 -274 -143 -41 4 -39 27 8 97 77 116 193 212 360 301 52 27 95 47 97
46 1 -2 -7 -28 -18 -57z"/>
<path d="M8432 1648 c-43 -47 -36 -118 12 -118 28 0 76 52 76 81 0 57 -49 78
-88 37z"/>
<path d="M8306 1638 c-37 -32 -48 -101 -18 -117 50 -27 117 48 96 107 -12 35
-44 39 -78 10z"/>
<path d="M8516 1559 c-56 -44 -52 -99 8 -99 48 0 88 40 84 83 -3 28 -7 32 -34
35 -19 2 -40 -5 -58 -19z"/>
<path d="M8345 1495 c-22 -8 -52 -14 -66 -14 -31 -1 -69 -35 -69 -62 0 -29
133 -159 164 -159 54 0 86 68 86 184 0 67 -28 79 -115 51z"/>
<path d="M8519 1427 c-57 -39 -66 -107 -14 -107 69 0 131 80 93 118 -18 18
-41 15 -79 -11z"/>
<path d="M7949 1180 c-25 -24 -30 -37 -27 -67 3 -36 5 -38 38 -38 28 0 38 6
58 35 16 24 21 42 17 60 -13 48 -44 52 -86 10z"/>
<path d="M7823 1185 c-28 -19 -46 -81 -32 -106 22 -41 90 -13 109 46 21 63
-24 97 -77 60z"/>
<path d="M8034 1099 c-26 -13 -52 -58 -47 -81 11 -45 102 -27 129 23 28 55
-19 88 -82 58z"/>
<path d="M7845 1038 c-27 -5 -60 -12 -72 -14 -59 -11 -72 -79 -23 -114 16 -12
44 -41 60 -66 35 -49 70 -58 110 -26 37 30 65 193 38 220 -14 14 -41 13 -113
0z"/>
<path d="M8019 957 c-60 -40 -62 -107 -4 -107 32 0 88 41 99 72 20 56 -35 76
-95 35z"/>
<path d="M7177 772 c-9 -10 -22 -33 -28 -51 -26 -75 67 -90 106 -17 12 21 16
42 11 59 -5 23 -12 27 -40 27 -19 0 -40 -8 -49 -18z"/>
<path d="M7307 762 c-31 -32 -36 -82 -11 -102 24 -20 66 0 89 42 39 73 -21
119 -78 60z"/>
<path d="M7400 683 c-28 -10 -60 -46 -60 -68 0 -50 60 -61 109 -19 60 51 25
114 -49 87z"/>
<path d="M7196 629 c-28 -4 -53 -6 -58 -3 -4 3 -21 -2 -38 -11 -43 -22 -42
-69 4 -112 18 -18 41 -48 50 -67 19 -40 38 -49 81 -38 37 10 63 57 78 146 16
96 3 106 -117 85z"/>
<path d="M7373 544 c-86 -42 -74 -136 13 -104 62 24 92 78 62 108 -16 16 -36
15 -75 -4z"/>
</g>
</svg>
