<svg id="visual" viewBox="0 0 900 50" width="900" height="50" xmlns="http://www.w3.org/2000/svg" xmlns:xlink="http://www.w3.org/1999/xlink" version="1.1"><rect x="0" y="0" width="900" height="50" fill="#ffffff"></rect><path d="M0 6L9.3 10.2C18.7 14.3 37.3 22.7 56.2 25C75 27.3 94 23.7 112.8 20.8C131.7 18 150.3 16 169 13.8C187.7 11.7 206.3 9.3 225 11.8C243.7 14.3 262.3 21.7 281.2 21.5C300 21.3 319 13.7 337.8 15.7C356.7 17.7 375.3 29.3 394 34.5C412.7 39.7 431.3 38.3 450 36.2C468.7 34 487.3 31 506.2 29.5C525 28 544 28 562.8 24C581.7 20 600.3 12 619 11.8C637.7 11.7 656.3 19.3 675 20.2C693.7 21 712.3 15 731.2 12.5C750 10 769 11 787.8 15.7C806.7 20.3 825.3 28.7 844 28.2C862.7 27.7 881.3 18.3 890.7 13.7L900 9L900 0L890.7 0C881.3 0 862.7 0 844 0C825.3 0 806.7 0 787.8 0C769 0 750 0 731.2 0C712.3 0 693.7 0 675 0C656.3 0 637.7 0 619 0C600.3 0 581.7 0 562.8 0C544 0 525 0 506.2 0C487.3 0 468.7 0 450 0C431.3 0 412.7 0 394 0C375.3 0 356.7 0 337.8 0C319 0 300 0 281.2 0C262.3 0 243.7 0 225 0C206.3 0 187.7 0 169 0C150.3 0 131.7 0 112.8 0C94 0 75 0 56.2 0C37.3 0 18.7 0 9.3 0L0 0Z" fill="#feb4ff" stroke-linecap="round" stroke-linejoin="miter"></path></svg>