<svg width="1440" height="84" viewBox="0 0 1440 84" fill="none" xmlns="http://www.w3.org/2000/svg">
<path fill-rule="evenodd" clip-rule="evenodd" d="M1440 84H1413C1387 84 1333 84 1280 71.6185C1227 59.4798 1173 34.9595 1120 34.9595C1067 34.9595 1013 59.4798 960 59.4798C907 59.4798 853 34.9595 800 29.6185C747 24.5202 693 38.3584 640 52.4393C587 66.5202 533 80.3584 480 76.9595C427 73.3179 373 52.4393 320 52.4393C267 52.4393 213 73.3179 160 75.2601C107 76.9595 53 59.4798 27 50.7399L0 42V1.87755e-06H27C53 1.87755e-06 107 1.87755e-06 160 1.87755e-06C213 1.87755e-06 267 1.87755e-06 320 1.87755e-06C373 1.87755e-06 427 1.87755e-06 480 1.87755e-06C533 1.87755e-06 587 1.87755e-06 640 1.87755e-06C693 1.87755e-06 747 1.87755e-06 800 1.87755e-06C853 1.87755e-06 907 1.87755e-06 960 1.87755e-06C1013 1.87755e-06 1067 1.87755e-06 1120 1.87755e-06C1173 1.87755e-06 1227 1.87755e-06 1280 1.87755e-06C1333 1.87755e-06 1387 1.87755e-06 1413 1.87755e-06H1440V84Z" fill="#FEB4FF"/>
</svg>
