<svg id="visual" viewBox="0 0 900 50" width="900" height="50" xmlns="http://www.w3.org/2000/svg" xmlns:xlink="http://www.w3.org/1999/xlink" version="1.1"><rect x="0" y="0" width="900" height="50" fill="#ffffff"></rect><path d="M0 42L9.3 37.8C18.7 33.7 37.3 25.3 56.2 23C75 20.7 94 24.3 112.8 27.2C131.7 30 150.3 32 169 34.2C187.7 36.3 206.3 38.7 225 36.2C243.7 33.7 262.3 26.3 281.2 26.5C300 26.7 319 34.3 337.8 32.3C356.7 30.3 375.3 18.7 394 13.5C412.7 8.3 431.3 9.7 450 11.8C468.7 14 487.3 17 506.2 18.5C525 20 544 20 562.8 24C581.7 28 600.3 36 619 36.2C637.7 36.3 656.3 28.7 675 27.8C693.7 27 712.3 33 731.2 35.5C750 38 769 37 787.8 32.3C806.7 27.7 825.3 19.3 844 19.8C862.7 20.3 881.3 29.7 890.7 34.3L900 39L900 51L890.7 51C881.3 51 862.7 51 844 51C825.3 51 806.7 51 787.8 51C769 51 750 51 731.2 51C712.3 51 693.7 51 675 51C656.3 51 637.7 51 619 51C600.3 51 581.7 51 562.8 51C544 51 525 51 506.2 51C487.3 51 468.7 51 450 51C431.3 51 412.7 51 394 51C375.3 51 356.7 51 337.8 51C319 51 300 51 281.2 51C262.3 51 243.7 51 225 51C206.3 51 187.7 51 169 51C150.3 51 131.7 51 112.8 51C94 51 75 51 56.2 51C37.3 51 18.7 51 9.3 51L0 51Z" fill="#feb4ff" stroke-linecap="round" stroke-linejoin="miter"></path></svg>