<svg width="1440" height="116" viewBox="0 0 1440 116" fill="none" xmlns="http://www.w3.org/2000/svg">
<path fill-rule="evenodd" clip-rule="evenodd" d="M0 0L17.4732 8.59259C33.9186 17.1852 68.8651 34.3704 102.784 49.4074C136.702 64.4444 171.649 77.3333 205.567 79.4815C240.514 81.6296 274.433 73.037 308.351 73.037C343.298 73.037 377.216 81.6296 411.135 75.1852C446.081 68.7407 480 47.2593 513.919 38.6667C548.865 30.0741 582.784 34.3704 616.702 30.0741C651.649 25.7778 685.567 12.8889 720.514 19.3333C754.433 25.7778 788.351 51.5556 823.298 62.2963C857.216 73.037 891.135 68.7407 926.081 73.037C960 77.3333 993.919 90.2222 1028.87 88.0741C1062.78 85.9259 1096.7 68.7407 1131.65 58C1165.57 47.2593 1200.51 42.963 1234.43 45.1111C1268.35 47.2593 1303.3 55.8519 1337.22 55.8519C1371.13 55.8519 1406.08 47.2593 1422.53 42.963L1440 38.6667V116H1422.53C1406.08 116 1371.13 116 1337.22 116C1303.3 116 1268.35 116 1234.43 116C1200.51 116 1165.57 116 1131.65 116C1096.7 116 1062.78 116 1028.87 116C993.919 116 960 116 926.081 116C891.135 116 857.216 116 823.298 116C788.351 116 754.433 116 720.514 116C685.567 116 651.649 116 616.702 116C582.784 116 548.865 116 513.919 116C480 116 446.081 116 411.135 116C377.216 116 343.298 116 308.351 116C274.433 116 240.514 116 205.567 116C171.649 116 136.702 116 102.784 116C68.8651 116 33.9186 116 17.4732 116H0V0Z" fill="#FEB4FF"/>
</svg>
